<svg xmlns="http://www.w3.org/2000/svg" viewBox="0 0 165.9 46.38"><defs><style>.cls-1{fill:#fff;}</style></defs><g id="Layer_2" data-name="Layer 2"><g id="Layer_1-2" data-name="Layer 1"><path class="cls-1" d="M21.36,2.34c9.3.12,17.22,5.46,19.26,14.16L34.8,18.12C33,11.58,28,7.86,21.3,7.86,12,7.8,6.18,15.12,6.18,24.42S12.12,41.1,21.6,41c7,0,12-3.78,13.56-10.08V29.22H21.48V24.54h18.9V45.36H35.16v-.72A54.75,54.75,0,0,1,36.54,38l-2-.84C32,43,26.82,46.26,20.16,46.32,7.32,46.44,0,36.18,0,24.6,0,11.1,9.6,2.16,21.36,2.34Z"/><path class="cls-1" d="M48.72,45.36V13.56h5.22V14a18.2,18.2,0,0,1-1.2,5.28l2,.66c1.86-4.8,4.68-6.84,8.4-6.84a7.57,7.57,0,0,1,2.64.42l.42,5.4a13.39,13.39,0,0,0-3.78-.54c-3.6,0-6.78,2.46-7.86,6.6v20.4Z"/><path class="cls-1" d="M70.56,4.08a4.17,4.17,0,0,1,8.34,0,4.17,4.17,0,0,1-8.34,0Zm1.26,9.48H77.7v31.8H71.82Z"/><path class="cls-1" d="M84.36,29.46c0-10.56,6.3-16.86,14.58-16.86,5.34,0,9.36,2.64,11.28,6.9l1.86-1.14A21.67,21.67,0,0,1,110.28,9V1.56h5.88v43.8h-5.1v-.42a34.46,34.46,0,0,1,1.26-4.86l-1.86-.9c-1.8,4.56-6.36,7.14-11.64,7.14C90.36,46.32,84.36,39.72,84.36,29.46Zm25.92,5V24.42c-1.2-4.08-4.68-6.84-9.6-6.84-6,0-10.32,4.08-10.32,11.88,0,7.62,4.08,11.88,10.14,11.88C105,41.34,109,39,110.28,34.5Z"/><path class="cls-1" d="M127.2,33.84c.54,5.22,3.84,7.92,9.6,7.92,4.74,0,7.5-1.8,7.5-5.1,0-4-4.14-4.44-9-5.34-5.4-1-11.82-2.58-11.82-9.3,0-5.82,5.22-9.48,12.72-9.48,7.8,0,13.14,3.84,13.92,9.78l-4.86,1.38c-.78-4.38-4.38-6.54-9.3-6.54-4.2,0-6.66,1.62-6.66,4.5,0,3.66,4.32,4.2,9.3,5.16,5.82,1.08,11.64,2.46,11.64,9.3,0,6.6-5.22,10.26-13.68,10.26-8.7,0-13.86-4-14.4-11Z"/><path class="cls-1" d="M157.32,41.82c0-2.64,1.74-4,4.32-4s4.26,1.38,4.26,4-1.68,4.08-4.26,4.08S157.32,44.46,157.32,41.82Z"/></g></g></svg>